#!OML:ASF I:\golf\golf\golf 2\Subject 1\2002-09-07\Subject1.ASF
:FULLY-SPECIFIED
:DEGREES
416
root -1.10716 17.8543 -2.44136 7.0404 7.4231 -6.83365
lowerback 9.46941 2.16268 1.61463
upperback 2.78742 3.2016 5.30296
thorax -2.62576 1.59452 4.23465
lowerneck -21.0539 -3.72229 -2.50081
upperneck 16.1368 -4.23015 -0.417448
head 8.52725 -2.19452 -0.298277
rclavicle 1.98785e-015 -3.18055e-015
rhumerus -24.8042 11.0789 -79.9397
rradius 38.7917
rwrist -17.3398
rhand -22.2903 10.7142
rfingers 7.12502
rthumb 4.12847 -19.2256
lclavicle 1.98785e-015 -3.18055e-015
lhumerus -32.493 -35.675 104.11
lradius 35.7789
lwrist -1.33649
lhand -18.1127 16.7433
lfingers 7.12502
lthumb 8.16152 46.5657
rfemur -19.3444 -4.63079 29.9139
rtibia 32.352
rfoot -13.3063 -17.3898
rtoes 6.44677
lfemur -26.0227 2.48325 -3.43444
ltibia 30.994
lfoot -8.90095 -3.64696
ltoes -17.9692
417
root -1.11644 17.8631 -2.42263 6.72721 6.95057 -6.96241
lowerback 9.11492 2.14915 1.60644
upperback 2.58438 3.1798 5.37004
thorax -2.64377 1.58547 4.32059
lowerneck -20.8013 -3.61531 -2.52188
upperneck 16.1788 -4.07293 -0.481607
head 8.49606 -2.12976 -0.291459
rclavicle 1.33186e-014 -4.13472e-014
rhumerus -24.9513 10.7271 -79.6637
rradius 38.3311
rwrist -17.0348
rhand -22.1217 10.7572
rfingers 7.12502
rthumb 4.29122 -19.1793
lclavicle 1.33186e-014 -4.13472e-014
lhumerus -32.9302 -35.0446 104.339
lradius 35.5777
lwrist -1.55498
lhand -20.4727 15.7475
lfingers 7.12502
lthumb 5.88347 45.6458
rfemur -18.614 -4.29314 30.0225
rtibia 31.8137
rfoot -13.1895 -17.2848
rtoes 6.73079
lfemur -25.2332 2.407 -3.20085
ltibia 30.6363
lfoot -8.90094 -3.17378
ltoes -18.386
418
root -1.12453 17.8732 -2.40367 6.36583 6.44094 -6.95537
lowerback 8.82039 2.13829 1.43913
upperback 2.48529 3.14393 5.42256
thorax -2.5932 1.5693 4.48268
lowerneck -20.8746 -3.48185 -2.58717
upperneck 16.3961 -3.86229 -0.511696
head 8.58196 -2.03854 -0.267038
rclavicle -2.64384e-014 -1.03368e-014
rhumerus -24.8915 10.2607 -79.3175
rradius 37.8031
rwrist -16.7758
rhand -22.0658 10.9007
rfingers 7.12502
rthumb 4.34525 -19.0347
lclavicle -2.64384e-014 -1.03368e-014
lhumerus -33.1221 -34.3928 104.419
lradius 35.2872
lwrist -2.14303
lhand -21.0002 15.6491
lfingers 7.12502
lthumb 5.37411 45.5609
rfemur -17.8353 -3.99747 29.971
rtibia 31.3117
rfoot -13.0446 -17.1123
rtoes 6.91686
lfemur -24.3352 2.27915 -3.11899
ltibia 30.2437
lfoot -8.86381 -2.67582
ltoes -18.4711
419
root -1.13258 17.8836 -2.38345 6.05469 6.02427 -6.8942
lowerback 8.44852 2.09164 1.28237
upperback 2.41214 3.05562 5.42708
thorax -2.46522 1.52631 4.59683
lowerneck -21.0233 -3.33621 -2.54024
upperneck 16.6318 -3.64723 -0.630704
head 8.68315 -1.94812 -0.291373
rclavicle -2.56432e-014 -1.43125e-014
rhumerus -24.7237 9.78509 -79.0181
rradius 37.1431
rwrist -16.4583
rhand -22.5215 11.525
rfingers 7.12502
rthumb 3.90519 -18.419
lclavicle -2.56432e-014 -1.43125e-014
lhumerus -33.2162 -33.855 104.437
lradius 35.0818
lwrist -2.1947
lhand -19.7811 16.2185
lfingers 7.12502
lthumb 6.55109 46.0972
rfemur -17.1237 -3.8304 29.8786
rtibia 30.8409
rfoot -12.9994 -16.9227
rtoes 7.08179
lfemur -23.5049 2.07911 -3.10367
ltibia 29.824
lfoot -8.78054 -2.21833
ltoes -18.5582
420
root -1.14082 17.8936 -2.36604 5.84169 5.65493 -6.90178
lowerback 7.95731 2.03171 1.23492
upperback 2.31415 2.95554 5.43138
thorax -2.28955 1.47689 4.65268
lowerneck -20.8527 -3.17856 -2.32914
upperneck 16.4567 -3.44826 -0.886743
head 8.58326 -1.86918 -0.380565
rclavicle -3.97569e-016 -2.38542e-015
rhumerus -24.6883 9.38112 -78.7579
rradius 36.6168
rwrist -16.128
rhand -23.0694 12.028
rfingers 7.12502
rthumb 3.37611 -17.925
lclavicle -3.97569e-016 -2.38542e-015
lhumerus -33.3262 -33.4138 104.456
lradius 34.936
lwrist -2.0878
lhand -17.9221 16.8264
lfingers 7.12502
lthumb 8.34555 46.6416
rfemur -16.5579 -3.65717 29.872
rtibia 30.3917
rfoot -12.9919 -16.7997
rtoes 7.20442
lfemur -22.8127 1.88036 -3.02165
ltibia 29.3816
lfoot -8.61466 -1.78046
ltoes -18.7165
421
root -1.14996 17.9054 -2.35166 5.65933 5.28866 -6.93317
lowerback 7.50754 1.95405 1.1802
upperback 2.22898 2.83331 5.45562
thorax -2.12274 1.4162 4.73387
lowerneck -20.73 -2.97835 -1.93927
upperneck 16.1622 -3.20396 -1.33828
head 8.44542 -1.77797 -0.558116
rclavicle -7.95139e-015 -5.24792e-014
rhumerus -24.5704 8.92169 -78.5007
rradius 36.1245
rwrist -15.693
rhand -23.2089 12.0621
rfingers 7.12502
rthumb 3.24135 -17.893
lclavicle -7.95139e-015 -5.24792e-014
lhumerus -33.481 -33.0819 104.454
lradius 34.8515
lwrist -2.35875
lhand -16.9598 17.4107
lfingers 7.12502
lthumb 9.27411 47.1867
rfemur -16.0551 -3.44838 29.8932
rtibia 29.9576
rfoot -12.8455 -16.6934
rtoes 7.2583
lfemur -22.1775 1.70183 -2.91563
ltibia 28.974
lfoot -8.52657 -1.32252
ltoes -18.7831
422
root -1.1582 17.9143 -2.33818 5.49749 4.93248 -6.9983
lowerback 7.10367 1.87432 1.17812
upperback 2.17272 2.71207 5.46138
thorax -1.94757 1.35527 4.76361
lowerneck -20.9896 -2.75993 -1.53959
upperneck 16.1517 -2.9391 -1.72831
head 8.47322 -1.67089 -0.723554
rclavicle 2.5842e-014 3.4191e-014
rhumerus -24.2625 8.28843 -78.2731
rradius 35.5741
rwrist -15.2838
rhand -23.2822 11.8533
rfingers 7.12502
rthumb 3.17055 -18.1028
lclavicle 2.5842e-014 3.4191e-014
lhumerus -33.591 -32.8874 104.391
lradius 34.848
lwrist -2.60699
lhand -18.8814 17.7553
lfingers 7.12502
lthumb 7.41963 47.6052
rfemur -15.5873 -3.29452 29.9564
rtibia 29.5328
rfoot -12.7084 -16.5053
rtoes 7.59002
lfemur -21.6049 1.59424 -2.79007
ltibia 28.6276
lfoot -8.50315 -0.910779
ltoes -19.1106
423
root -1.16469 17.9198 -2.32757 5.38168 4.59442 -7.18719
lowerback 6.682 1.8074 1.36216
upperback 2.08054 2.62102 5.46612
thorax -1.79333 1.30935 4.68292
lowerneck -21.2908 -2.55571 -1.25419
upperneck 16.2795 -2.70153 -1.90951
head 8.56214 -1.56203 -0.805887
rclavicle 4.13472e-014 4.77083e-014
rhumerus -23.9628 7.37284 -78.055
rradius 34.9441
rwrist -14.8525
rhand -23.4723 11.7995
rfingers 7.12502
rthumb 2.98702 -18.1593
lclavicle 4.13472e-014 4.77083e-014
lhumerus -33.7437 -32.6449 104.304
lradius 34.8743
lwrist -2.78702
lhand -20.8302 17.8551
lfingers 7.12502
lthumb 5.53829 47.7627
rfemur -15.1976 -3.05841 30.1504
rtibia 29.1321
rfoot -12.6392 -16.3376
rtoes 8.10978
lfemur -21.1308 1.56416 -2.5398
ltibia 28.3048
lfoot -8.36934 -0.567079
ltoes -19.057
424
root -1.17077 17.9251 -2.31867 5.26048 4.32362 -7.38705
lowerback 6.32125 1.70245 1.57991
upperback 1.95053 2.48572 5.50934
thorax -1.70961 1.24192 4.62428
lowerneck -21.3115 -2.43885 -1.08336
upperneck 16.2421 -2.56402 -2.05652
head 8.54914 -1.50269 -0.864895
rclavicle -5.56597e-015 -6.59965e-014
rhumerus -23.72 6.3657 -77.76
rradius 34.2595
rwrist -14.3301
rhand -23.5698 12.064
rfingers 7.12502
rthumb 2.89278 -17.8961
lclavicle -5.56597e-015 -6.59965e-014
lhumerus -33.9569 -32.1984 104.252
lradius 34.9133
lwrist -3.16227
lhand -21.709 17.9039
lfingers 7.12502
lthumb 4.68979 47.8319
rfemur -14.8414 -2.83593 30.3555
rtibia 28.7778
rfoot -12.5856 -16.22
rtoes 8.38659
lfemur -20.6913 1.41125 -2.26868
ltibia 27.978
lfoot -8.17582 -0.160956
ltoes -19.1242
425
root -1.17718 17.9331 -2.30713 5.11338 4.05407 -7.372
lowerback 5.98718 1.57394 1.52611
upperback 1.89446 2.29954 5.59338
thorax -1.57372 1.14885 4.76581
lowerneck -21.6557 -2.25518 -1.10196
upperneck 16.3867 -2.26049 -2.23461
head 8.65854 -1.3828 -0.888798
rclavicle 1.59028e-015 -3.97569e-014
rhumerus -23.3805 5.46468 -77.3402
rradius 33.6827
rwrist -13.8645
rhand -23.7245 12.1124
rfingers 7.12502
rthumb 2.74339 -17.8497
lclavicle 1.59028e-015 -3.97569e-014
lhumerus -33.9736 -31.7457 104.246
lradius 34.8913
lwrist -3.58419
lhand -20.9818 18.2323
lfingers 7.12502
lthumb 5.39191 48.1437
rfemur -14.4659 -2.79265 30.3314
rtibia 28.4769
rfoot -12.5705 -16.0185
rtoes 8.44473
lfemur -20.1827 1.12239 -2.23078
ltibia 27.6372
lfoot -8.03995 0.298796
ltoes -19.3338
426
root -1.18358 17.942 -2.29678 4.985 3.69384 -7.20876
lowerback 5.64448 1.46458 1.28738
upperback 1.90564 2.12443 5.67552
thorax -1.36983 1.06029 5.00931
lowerneck -22.3016 -2.00296 -1.16493
upperneck 16.6603 -1.82055 -2.49512
head 8.86639 -1.21423 -0.920024
rclavicle -2.10712e-014 2.94201e-014
rhumerus -22.9517 4.72939 -76.9297
rradius 33.2459
rwrist -13.5584
rhand -24.1918 11.8119
rfingers 7.12502
rthumb 2.29208 -18.1556
lclavicle -2.10712e-014 2.94201e-014
lhumerus -33.8353 -31.3316 104.202
lradius 34.8504
lwrist -3.97934
lhand -15.4384 20.0314
lfingers 7.12502
lthumb 10.7419 49.7368
rfemur -14.1213 -2.73585 30.1395
rtibia 28.218
rfoot -12.5509 -15.748
rtoes 8.79524
lfemur -19.6345 0.935832 -2.369
ltibia 27.2895
lfoot -7.97515 0.686288
ltoes -19.1255
